HIERARCHY
ROOT hip
{
	OFFSET 0.000000 0.000000 0.000000
	CHANNELS 6 Xposition Yposition Zposition Xrotation Zrotation Yrotation 
	JOINT abdomen
	{
		OFFSET 0.000000 3.422050 0.000000
		CHANNELS 3 Xrotation Zrotation Yrotation 
		JOINT chest
		{
			OFFSET 0.000000 8.486693 -0.684411
			CHANNELS 3 Xrotation Zrotation Yrotation 
			JOINT neck
			{
				OFFSET 0.000000 10.266162 -0.273764
				CHANNELS 3 Xrotation Zrotation Yrotation 
				JOINT head
				{
					OFFSET 0.000000 3.148285 0.000000
					CHANNELS 3 Xrotation Zrotation Yrotation 
					End Site
					{
						OFFSET 0.000000 3.148289 0.000000
					}
				}
			}
			JOINT lCollar
			{
				OFFSET 3.422053 6.707223 -0.821293
				CHANNELS 3 Yrotation Zrotation Xrotation 
				JOINT lShldr
				{
					OFFSET 3.285171 0.000000 0.000000
					CHANNELS 3 Zrotation Yrotation Xrotation 
					JOINT lForeArm
					{
						OFFSET 10.129278 0.000000 0.000000
						CHANNELS 3 Yrotation Zrotation Xrotation 
						JOINT lHand
						{
							OFFSET 8.486692 0.000000 0.000000
							CHANNELS 3 Zrotation Yrotation Xrotation 
							End Site
							{
								OFFSET 4.106464 0.000000 0.000000
							}
						}
					}
				}
			}
			JOINT rCollar
			{
				OFFSET -3.558935 6.707223 -0.821293
				CHANNELS 3 Yrotation Zrotation Xrotation 
				JOINT rShldr
				{
					OFFSET -3.148289 0.000000 0.000000
					CHANNELS 3 Zrotation Yrotation Xrotation 
					JOINT rForeArm
					{
						OFFSET -10.266159 0.000000 0.000000
						CHANNELS 3 Yrotation Zrotation Xrotation 
						JOINT rHand
						{
							OFFSET -8.349810 0.000000 0.000000
							CHANNELS 3 Zrotation Yrotation Xrotation 
							End Site
							{
								OFFSET -4.106464 0.000000 0.000000
							}
						}
					}
				}
			}
		}
	}
	JOINT lThigh
	{
		OFFSET 5.338403 -1.642589 1.368821
		CHANNELS 3 Xrotation Zrotation Yrotation 
		JOINT lShin
		{
			OFFSET -2.053232 -20.121670 0.000000
			CHANNELS 3 Xrotation Zrotation Yrotation 
			JOINT lFoot
			{
				OFFSET 0.000000 -19.300380 -1.231939
				CHANNELS 3 Xrotation Yrotation Zrotation 
				End Site
				{
					OFFSET 0.000000 -2.463878 4.653993
				}
			}
		}
	}
	JOINT rThigh
	{
		OFFSET -5.338403 -1.642589 1.368821
		CHANNELS 3 Xrotation Zrotation Yrotation 
		JOINT rShin
		{
			OFFSET 2.053232 -20.121670 0.000000
			CHANNELS 3 Xrotation Zrotation Yrotation 
			JOINT rFoot
			{
				OFFSET 0.000000 -19.300380 -1.231939
				CHANNELS 3 Xrotation Yrotation Zrotation 
				End Site
				{
					OFFSET 0.000000 -2.463878 4.653993
				}
			}
		}
	}
}
MOTION
Frames: 13
Frame Time: 0.049897
-1.336662 24.439732 -14.614630 -17.149981 0.000000 0.000000 43.886242 1.174654 10.002447 17.090149 12.495524 -1.253174 0.905272 -1.394139 7.132210 -24.432384 5.129458 3.272002 -45.365696 -1.348585 19.150692 -29.850161 -11.774427 -51.454758 -101.274696 8.124437 41.788841 13.143981 -31.224281 -31.399509 35.151939 -5.514264 9.431392 29.639498 -1.707042 -51.618374 111.049858 -4.706236 31.301289 -2.228446 -9.023083 4.117031 3.379902 14.798915 6.603348 92.482559 4.991737 -6.952153 58.520172 15.281254 10.088072 2.644098 -15.843146 -6.477076 92.694427 -5.133991 6.960085 56.931870 -14.255102 -10.286644 
-1.336662 24.439732 -14.739826 -17.086798 0.000000 0.000000 44.818501 1.189820 10.934709 17.994539 13.591046 -1.277863 1.158682 -1.581167 7.781700 -24.193949 5.132332 3.327248 -44.574375 -0.222707 18.570127 -29.850161 -11.774427 -51.454758 -102.790405 8.007700 41.978462 13.600097 -30.669989 -31.767992 33.841797 -7.385742 8.256227 29.961859 -2.655580 -51.469749 113.508820 -4.497418 30.469156 -1.743570 -9.356877 3.271705 3.406844 14.802796 6.605275 92.482559 4.991737 -6.952153 58.515606 15.279439 10.084506 2.671066 -15.845998 -6.477858 92.694427 -5.133991 6.960085 56.931870 -14.255102 -10.286644 
-1.336662 24.439730 -14.865021 -17.023611 0.000000 0.000000 45.751007 1.189816 11.867216 18.902950 14.686980 -1.284793 1.410244 -1.771256 8.431105 -23.955488 5.134977 3.382513 -43.771446 0.895177 17.973896 -29.850161 -11.774427 -51.454758 -104.305519 7.886021 42.164875 14.049921 -30.112679 -32.129608 32.482864 -9.234838 7.028854 30.282068 -3.605005 -51.326336 115.961914 -4.324900 29.631758 -1.253248 -9.683578 2.422667 3.433786 14.806670 6.607200 92.482559 4.991737 -6.952153 58.511028 15.277624 10.080946 2.698035 -15.848849 -6.478640 92.694427 -5.133991 6.960085 56.931870 -14.255102 -10.286644 
-1.336662 24.439730 -14.990217 -16.960426 0.000000 0.000000 46.683273 1.174643 12.799479 19.815825 15.782711 -1.273706 1.659904 -1.964371 9.080374 -23.717001 5.137393 3.437793 -42.956673 2.004346 17.361862 -29.850161 -11.774427 -51.454758 -105.819504 7.759519 42.347874 14.493569 -29.552460 -32.484474 31.073338 -11.057559 5.747596 30.600245 -4.555143 -51.188076 118.406204 -4.188799 28.791546 -0.757619 -10.003041 1.570049 3.460729 14.810548 6.609130 92.482559 4.991737 -6.952153 58.506458 15.275810 10.077381 2.725004 -15.851702 -6.479424 92.694427 -5.133991 6.960085 56.931870 -14.255102 -10.286644 
-1.336662 24.439730 -15.115412 -16.897238 0.000000 0.000000 47.614788 1.144325 13.730997 20.733618 16.877621 -1.244335 1.907609 -2.160475 9.729453 -23.478491 5.139580 3.493088 -42.129807 3.104071 16.733896 -29.850161 -11.774427 -51.454758 -107.331879 7.628345 42.527313 14.931170 -28.989441 -32.832714 29.611504 -12.849839 4.410859 30.916506 -5.505807 -51.054943 120.838753 -4.089012 27.950951 -0.256831 -10.315123 0.713995 3.487674 14.814425 6.611062 92.482559 4.991737 -6.952153 58.501877 15.273991 10.073816 2.751975 -15.854556 -6.480210 92.694427 -5.133991 6.960085 56.931870 -14.255102 -10.286644 
-1.336662 24.439730 -15.240607 -16.834044 0.000000 0.000000 48.545094 1.098909 14.661291 21.656818 17.971102 -1.196398 2.153309 -2.359534 10.378297 -23.239958 5.141539 3.548396 -41.290630 4.193631 16.089878 -29.850161 -11.774427 -51.454758 -108.842010 7.492644 42.702972 15.362823 -28.423706 -33.174416 28.095766 -14.607541 3.017168 31.230982 -6.456813 -50.926933 123.256691 -4.025201 27.112354 0.248963 -10.619679 -0.145348 3.514620 14.818307 6.612996 92.482559 4.991737 -6.952153 58.497314 15.272179 10.070255 2.778945 -15.857408 -6.480996 92.694427 -5.133991 6.960085 56.931870 -14.255102 -10.286644 
-1.336662 24.439730 -15.365803 -16.770857 0.000000 0.000000 49.473667 1.038465 15.589865 22.585890 19.062515 -1.129603 2.396950 -2.561507 11.026851 -23.001402 5.143267 3.603716 -40.438900 5.272300 15.429691 -29.850161 -11.774427 -51.454758 -110.349442 7.352578 42.874718 15.788667 -27.855379 -33.509720 26.524712 -16.326492 1.565211 31.543772 -7.407980 -50.803982 125.657242 -3.996824 26.278080 0.759603 -10.916582 -1.007826 3.541565 14.822180 6.614930 92.482559 4.991737 -6.952153 58.492737 15.270364 10.066690 2.805917 -15.860259 -6.481785 92.694427 -5.133991 6.960085 56.931870 -14.255102 -10.286644 
-1.336662 24.439730 -15.490998 -16.707661 0.000000 0.000000 50.400040 0.963089 16.516237 23.521330 20.151241 -1.043646 2.638485 -2.766356 11.675072 -22.762833 5.144767 3.659047 -39.574444 6.339358 14.753236 -29.850161 -11.774427 -51.454758 -111.853622 7.208302 43.042358 16.208803 -27.284555 -33.838718 24.897114 -18.002493 0.053873 31.855000 -8.359127 -50.686077 128.037796 -4.003131 25.450363 1.274923 -11.205703 -1.873277 3.568512 14.826053 6.616867 92.482559 4.991737 -6.952153 58.488167 15.268550 10.063128 2.832888 -15.863110 -6.482574 92.694427 -5.133991 6.960085 56.931870 -14.255102 -10.286644 
-1.336662 24.439730 -15.616194 -16.644468 0.000000 0.000000 51.323742 0.872897 17.439939 24.463661 21.236666 -0.938208 2.877864 -2.974039 12.322907 -22.524248 5.146038 3.714386 -38.697067 7.394086 14.060430 -29.850161 -11.774427 -51.454758 -113.354073 7.060000 43.205784 16.623335 -26.711315 -34.161510 23.212023 -19.631365 -1.517699 32.164776 -9.310076 -50.573193 130.444275 -3.620693 24.712908 1.794747 -11.486921 -2.741534 3.595460 14.829929 6.618806 92.482559 4.991737 -6.952153 58.483589 15.266737 10.059565 2.859861 -15.865961 -6.483366 92.694427 -5.133991 6.960085 56.931870 -14.255102 -10.286644 
-1.336662 24.439730 -15.741389 -16.581274 0.000000 0.000000 52.244301 0.768029 18.360498 25.413383 22.318136 -0.812960 3.115038 -3.184515 12.970316 -22.285648 5.147077 3.769732 -37.806614 8.435782 13.351197 -29.850161 -11.774427 -51.454758 -114.850258 6.907846 43.364838 17.032389 -26.135775 -34.478210 21.468790 -21.208967 -3.150051 32.473228 -10.260643 -50.465332 132.860794 -3.268649 23.958345 2.318900 -11.760122 -3.612427 3.622407 14.833801 6.620747 92.482559 4.991737 -6.952153 58.479023 15.264923 10.056003 2.886833 -15.868809 -6.484158 92.694427 -5.133991 6.960085 56.931870 -14.255101 -10.286644 
-1.336662 24.439730 -15.866585 -16.518080 0.000000 0.000000 53.161266 0.648648 19.277462 26.371058 23.395060 -0.667557 3.349959 -3.397738 13.617244 -22.047045 5.147888 3.825085 -36.902931 9.463738 12.625486 -29.850161 -11.774427 -51.454758 -116.341728 6.752029 43.519394 17.436068 -25.558022 -34.788925 20.108389 -23.027456 -4.381894 32.780468 -11.210657 -50.362465 135.284714 -2.948231 23.188639 2.847194 -12.025195 -4.485772 3.649356 14.837674 6.622690 92.482559 4.991737 -6.952153 58.474430 15.263104 10.052435 2.913806 -15.871657 -6.484950 92.694427 -5.133991 6.960085 56.931870 -14.255102 -10.286644 
-1.336662 24.439730 -15.991780 -16.454884 0.000000 0.000000 54.074188 0.514930 20.190382 27.337214 24.466787 -0.501643 3.582585 -3.613667 14.263656 -21.808434 5.148470 3.880441 -35.985909 10.477266 11.883262 -29.850161 -11.774427 -51.454758 -117.827950 6.592740 43.669327 17.834480 -24.978151 -35.093746 18.684299 -24.819893 -5.679916 33.086617 -12.159942 -50.264580 137.713333 -2.660491 22.405849 3.379440 -12.282042 -5.361389 3.676305 14.841542 6.624634 92.482559 4.991737 -6.952153 58.469868 15.261294 10.048874 2.940780 -15.874511 -6.485747 92.694427 -5.133991 6.960085 56.931873 -14.255103 -10.286644 
-1.336662 24.439730 -16.116976 -16.391687 0.000000 0.000000 54.982647 0.367080 21.098833 28.312412 25.532703 -0.314848 3.812869 -3.832254 14.909500 -21.569820 5.148822 3.935802 -35.055431 11.475674 11.124501 -29.850161 -11.774427 -51.454758 -119.308487 6.430177 43.814552 18.227739 -24.396269 -35.392799 17.193150 -26.582315 -7.047432 33.391785 -13.108316 -50.171673 140.143890 -2.406283 21.612123 3.915441 -12.530561 -6.239084 3.703256 14.845411 6.626580 92.482559 4.991737 -6.952153 58.465286 15.259480 10.045307 2.967755 -15.877358 -6.486542 92.694427 -5.133991 6.960085 56.931870 -14.255101 -10.286644 
